# Blender v2.79 (sub 0) OBJ File: ''
# www.blender.org
mtllib cube.mtl
o Sphere_Sphere.001
v 0.000000 -0.500000 -0.866025
v 0.000000 -0.866025 -0.500000
v -0.000000 1.000000 -0.000000
v 0.293893 0.866025 -0.404509
v 0.509037 0.500000 -0.700629
v 0.587785 -0.000000 -0.809017
v 0.509037 -0.500000 -0.700629
v 0.293893 -0.866025 -0.404509
v 0.475528 0.866025 -0.154509
v 0.823639 0.500000 -0.267617
v 0.951056 -0.000000 -0.309017
v 0.823639 -0.500000 -0.267617
v 0.475528 -0.866025 -0.154509
v 0.475528 0.866025 0.154508
v 0.823639 0.500000 0.267616
v 0.951056 -0.000000 0.309017
v 0.823639 -0.500000 0.267616
v 0.475528 -0.866025 0.154508
v 0.293893 0.866025 0.404508
v 0.509037 0.500000 0.700629
v 0.587785 -0.000000 0.809017
v 0.509037 -0.500000 0.700629
v 0.293893 -0.866025 0.404508
v 0.000000 0.866025 0.500000
v 0.000000 0.500000 0.866025
v -0.000000 -0.000000 1.000000
v -0.000000 -0.500000 0.866025
v 0.000000 -0.866025 0.500000
v -0.293893 0.866025 0.404508
v -0.509037 0.500000 0.700629
v -0.587785 -0.000000 0.809017
v -0.509037 -0.500000 0.700629
v -0.293893 -0.866025 0.404508
v 0.000000 -1.000000 -0.000000
v -0.475528 0.866025 0.154508
v -0.823639 0.500000 0.267616
v -0.951056 -0.000000 0.309017
v -0.823639 -0.500000 0.267616
v -0.475528 -0.866025 0.154508
v -0.475528 0.866025 -0.154509
v -0.823639 0.500000 -0.267617
v -0.951056 -0.000000 -0.309017
v -0.823639 -0.500000 -0.267617
v -0.475528 -0.866025 -0.154509
v -0.293893 0.866025 -0.404508
v -0.509037 0.500000 -0.700629
v -0.587785 -0.000000 -0.809017
v -0.509037 -0.500000 -0.700629
v -0.293893 -0.866025 -0.404509
v -0.000000 0.866025 -0.500000
v -0.000000 0.500000 -0.866025
v -0.000000 -0.000000 -1.000000
vn 0.2239 -0.6892 -0.6892
vn 0.2994 0.2469 -0.9216
vn 0.0838 0.9625 -0.2579
vn 0.0838 -0.9625 -0.2579
vn 0.2994 -0.2469 -0.9216
vn 0.2239 0.6892 -0.6892
vn 0.7840 0.2469 -0.5696
vn 0.2194 0.9625 -0.1594
vn 0.2194 -0.9625 -0.1594
vn 0.7840 -0.2469 -0.5696
vn 0.5862 0.6892 -0.4259
vn 0.5862 -0.6892 -0.4259
vn 0.2712 0.9625 0.0000
vn 0.2712 -0.9625 -0.0000
vn 0.9690 -0.2469 0.0000
vn 0.7246 0.6892 0.0000
vn 0.7246 -0.6892 -0.0000
vn 0.9690 0.2469 0.0000
vn 0.2194 -0.9625 0.1594
vn 0.7840 -0.2469 0.5696
vn 0.5862 0.6892 0.4259
vn 0.5862 -0.6892 0.4259
vn 0.7840 0.2469 0.5696
vn 0.2194 0.9625 0.1594
vn 0.0838 -0.9625 0.2579
vn 0.2994 -0.2469 0.9216
vn 0.2239 0.6892 0.6892
vn 0.2239 -0.6892 0.6892
vn 0.2994 0.2469 0.9216
vn 0.0838 0.9625 0.2579
vn -0.0838 -0.9625 0.2579
vn -0.2994 -0.2469 0.9216
vn -0.2239 0.6892 0.6892
vn -0.2239 -0.6892 0.6892
vn -0.2994 0.2469 0.9216
vn -0.0838 0.9625 0.2579
vn -0.7840 -0.2469 0.5696
vn -0.5862 0.6892 0.4259
vn -0.5862 -0.6892 0.4259
vn -0.7840 0.2469 0.5696
vn -0.2194 0.9625 0.1594
vn -0.2194 -0.9625 0.1594
vn -0.7246 0.6892 0.0000
vn -0.7246 -0.6892 0.0000
vn -0.9690 0.2469 0.0000
vn -0.2712 0.9625 0.0000
vn -0.2712 -0.9625 0.0000
vn -0.9690 -0.2469 -0.0000
vn -0.5862 -0.6892 -0.4259
vn -0.7840 0.2469 -0.5696
vn -0.2194 0.9625 -0.1594
vn -0.2194 -0.9625 -0.1594
vn -0.7840 -0.2469 -0.5696
vn -0.5862 0.6892 -0.4259
vn -0.2239 -0.6892 -0.6892
vn -0.2994 0.2469 -0.9216
vn -0.0838 0.9625 -0.2579
vn -0.0838 -0.9625 -0.2579
vn -0.2994 -0.2469 -0.9216
vn -0.2239 0.6892 -0.6892
usemtl None
s off
f 1//1 8//1 2//1
f 51//2 6//2 52//2
f 50//3 3//3 4//3
f 34//4 2//4 8//4
f 1//5 6//5 7//5
f 50//6 5//6 51//6
f 6//7 10//7 11//7
f 4//8 3//8 9//8
f 34//9 8//9 13//9
f 6//10 12//10 7//10
f 5//11 9//11 10//11
f 7//12 13//12 8//12
f 9//13 3//13 14//13
f 34//14 13//14 18//14
f 11//15 17//15 12//15
f 9//16 15//16 10//16
f 12//17 18//17 13//17
f 11//18 15//18 16//18
f 34//19 18//19 23//19
f 17//20 21//20 22//20
f 15//21 19//21 20//21
f 17//22 23//22 18//22
f 16//23 20//23 21//23
f 14//24 3//24 19//24
f 34//25 23//25 28//25
f 21//26 27//26 22//26
f 19//27 25//27 20//27
f 22//28 28//28 23//28
f 20//29 26//29 21//29
f 19//30 3//30 24//30
f 34//31 28//31 33//31
f 26//32 32//32 27//32
f 24//33 30//33 25//33
f 28//34 32//34 33//34
f 25//35 31//35 26//35
f 24//36 3//36 29//36
f 31//37 38//37 32//37
f 29//38 36//38 30//38
f 32//39 39//39 33//39
f 30//40 37//40 31//40
f 29//41 3//41 35//41
f 34//42 33//42 39//42
f 36//43 40//43 41//43
f 38//44 44//44 39//44
f 36//45 42//45 37//45
f 35//46 3//46 40//46
f 34//47 39//47 44//47
f 38//48 42//48 43//48
f 43//49 49//49 44//49
f 41//50 47//50 42//50
f 40//51 3//51 45//51
f 34//52 44//52 49//52
f 43//53 47//53 48//53
f 41//54 45//54 46//54
f 48//55 2//55 49//55
f 46//56 52//56 47//56
f 45//57 3//57 50//57
f 34//58 49//58 2//58
f 48//59 52//59 1//59
f 46//60 50//60 51//60
f 1//1 7//1 8//1
f 51//2 5//2 6//2
f 1//5 52//5 6//5
f 50//6 4//6 5//6
f 6//7 5//7 10//7
f 6//10 11//10 12//10
f 5//11 4//11 9//11
f 7//12 12//12 13//12
f 11//15 16//15 17//15
f 9//16 14//16 15//16
f 12//17 17//17 18//17
f 11//18 10//18 15//18
f 17//20 16//20 21//20
f 15//21 14//21 19//21
f 17//22 22//22 23//22
f 16//23 15//23 20//23
f 21//26 26//26 27//26
f 19//27 24//27 25//27
f 22//28 27//28 28//28
f 20//29 25//29 26//29
f 26//32 31//32 32//32
f 24//33 29//33 30//33
f 28//34 27//34 32//34
f 25//35 30//35 31//35
f 31//37 37//37 38//37
f 29//38 35//38 36//38
f 32//39 38//39 39//39
f 30//40 36//40 37//40
f 36//43 35//43 40//43
f 38//44 43//44 44//44
f 36//45 41//45 42//45
f 38//48 37//48 42//48
f 43//49 48//49 49//49
f 41//50 46//50 47//50
f 43//53 42//53 47//53
f 41//54 40//54 45//54
f 48//55 1//55 2//55
f 46//56 51//56 52//56
f 48//59 47//59 52//59
f 46//60 45//60 50//60
