# Blender v2.79 (sub 0) OBJ File: 'gameshell.blend'
# www.blender.org
mtllib gameshell.mtl
o Cube
v -1.578323 0.000000 0.000000
v -1.372455 -0.586413 0.586413
v -1.472270 -0.000000 0.630082
v -1.076130 -0.542744 1.076130
v -1.155670 -0.000000 1.155670
v -1.472270 -0.630082 -0.000000
v -1.076130 -1.076130 0.542744
v -0.914970 -0.914970 0.914970
v -1.372455 0.586413 0.586413
v -1.472270 0.630082 0.000000
v -1.076130 1.076130 0.542744
v -1.155670 1.155670 0.000000
v -1.076130 0.542744 1.076130
v -0.914970 0.914970 0.914970
v -1.372455 0.586413 -0.586413
v -1.472270 0.000000 -0.630082
v -1.076130 0.542744 -1.076130
v -1.155670 0.000000 -1.155670
v -1.076130 1.076130 -0.542744
v -0.914970 0.914970 -0.914970
v -1.372455 -0.586413 -0.586413
v -1.076130 -1.076130 -0.542744
v -1.155670 -1.155670 -0.000000
v -1.076130 -0.542744 -1.076130
v -0.914970 -0.914970 -0.914970
v 0.000000 0.000000 -1.578323
v -0.586413 -0.586413 -1.372455
v -0.630082 0.000000 -1.472270
v 0.000000 -0.630082 -1.472270
v -0.542744 -1.076130 -1.076130
v -0.586413 0.586413 -1.372455
v 0.000000 0.630082 -1.472270
v -0.542744 1.076130 -1.076130
v 0.000000 1.155670 -1.155670
v 0.586413 0.586413 -1.372455
v 0.630082 0.000000 -1.472270
v 1.076130 0.542744 -1.076130
v 1.155670 0.000000 -1.155670
v 0.542744 1.076130 -1.076130
v 0.914970 0.914970 -0.914970
v 0.586413 -0.586413 -1.372455
v 0.542744 -1.076130 -1.076130
v 0.000000 -1.155670 -1.155670
v 1.076130 -0.542744 -1.076130
v 0.914970 -0.914970 -0.914970
v 1.578323 0.000000 0.000000
v 1.372455 -0.586413 -0.586413
v 1.472270 0.000000 -0.630082
v 1.472270 -0.630082 -0.000000
v 1.076130 -1.076130 -0.542744
v 1.372455 0.586413 -0.586413
v 1.472270 0.630082 0.000000
v 1.076130 1.076130 -0.542744
v 1.155670 1.155670 0.000000
v 1.372455 0.586413 0.586413
v 1.472270 -0.000000 0.630082
v 1.076130 0.542744 1.076130
v 1.155670 -0.000000 1.155670
v 1.076130 1.076130 0.542744
v 0.914970 0.914970 0.914970
v 1.372455 -0.586413 0.586413
v 1.076130 -1.076130 0.542744
v 1.155670 -1.155670 -0.000000
v 1.076130 -0.542744 1.076130
v 0.914970 -0.914970 0.914970
v 0.000000 -0.000000 1.578323
v 0.586413 -0.586413 1.372455
v 0.630082 -0.000000 1.472270
v 0.000000 -0.630082 1.472270
v 0.542744 -1.076130 1.076130
v 0.586413 0.586413 1.372455
v 0.000000 0.630082 1.472270
v 0.542744 1.076130 1.076130
v 0.000000 1.155670 1.155670
v -0.586413 0.586413 1.372455
v -0.630082 -0.000000 1.472270
v -0.542744 1.076130 1.076130
v -0.586413 -0.586413 1.372455
v -0.542744 -1.076130 1.076130
v 0.000000 -1.155670 1.155670
v 0.000000 -1.578323 -0.000000
v -0.586413 -1.372455 -0.586413
v 0.000000 -1.472270 -0.630082
v -0.630082 -1.472270 -0.000000
v 0.586413 -1.372455 -0.586413
v 0.630082 -1.472270 -0.000000
v 0.586413 -1.372455 0.586413
v 0.000000 -1.472270 0.630082
v -0.586413 -1.372455 0.586413
v 0.000000 1.578323 0.000000
v 0.586413 1.372455 -0.586413
v 0.000000 1.472270 -0.630082
v 0.630082 1.472270 0.000000
v -0.586413 1.372455 -0.586413
v -0.630082 1.472270 0.000000
v -0.586413 1.372455 0.586413
v 0.000000 1.472270 0.630082
v 0.586413 1.372455 0.586413
vn 0.9705 0.1774 -0.1634
vn 0.8398 0.1972 -0.5059
vn 0.8342 0.5209 -0.1808
vn 0.7123 0.5149 -0.4769
vn 0.9705 -0.1633 -0.1774
vn 0.8398 -0.5059 -0.1972
vn 0.8342 -0.1808 -0.5209
vn 0.7123 -0.4769 -0.5149
vn 0.9705 -0.1774 0.1634
vn 0.8398 -0.1972 0.5059
vn 0.8342 -0.5209 0.1808
vn 0.7123 -0.5149 0.4769
vn 0.9705 0.1633 0.1774
vn 0.8398 0.5059 0.1972
vn 0.8342 0.1808 0.5209
vn 0.7123 0.4769 0.5149
vn 0.1633 0.1774 0.9705
vn 0.5059 0.1972 0.8398
vn 0.1808 0.5209 0.8342
vn 0.4769 0.5149 0.7123
vn 0.1774 -0.1634 0.9705
vn 0.1972 -0.5059 0.8398
vn 0.5209 -0.1808 0.8342
vn 0.5149 -0.4769 0.7123
vn -0.1634 -0.1774 0.9705
vn -0.5059 -0.1972 0.8398
vn -0.1808 -0.5209 0.8342
vn -0.4769 -0.5149 0.7123
vn -0.1774 0.1633 0.9705
vn -0.1972 0.5059 0.8398
vn -0.5209 0.1808 0.8342
vn -0.5149 0.4769 0.7123
vn -0.9705 0.1774 0.1634
vn -0.8398 0.1972 0.5059
vn -0.8342 0.5209 0.1808
vn -0.7123 0.5149 0.4769
vn -0.9705 -0.1633 0.1774
vn -0.8398 -0.5059 0.1972
vn -0.8342 -0.1808 0.5209
vn -0.7123 -0.4769 0.5149
vn -0.9705 -0.1774 -0.1634
vn -0.8398 -0.1972 -0.5059
vn -0.8342 -0.5209 -0.1808
vn -0.7123 -0.5149 -0.4769
vn -0.9705 0.1633 -0.1774
vn -0.8398 0.5059 -0.1972
vn -0.8342 0.1808 -0.5209
vn -0.7123 0.4769 -0.5149
vn -0.1634 0.1774 -0.9705
vn -0.5059 0.1972 -0.8398
vn -0.1808 0.5209 -0.8342
vn -0.4769 0.5149 -0.7123
vn -0.1774 -0.1633 -0.9705
vn -0.1972 -0.5059 -0.8398
vn -0.5209 -0.1808 -0.8342
vn -0.5149 -0.4769 -0.7123
vn 0.1633 -0.1774 -0.9705
vn 0.5059 -0.1972 -0.8398
vn 0.1808 -0.5209 -0.8342
vn 0.4769 -0.5149 -0.7123
vn 0.1774 0.1634 -0.9705
vn 0.1972 0.5059 -0.8398
vn 0.5209 0.1808 -0.8342
vn 0.5149 0.4769 -0.7123
vn 0.1774 0.9705 0.1634
vn 0.1972 0.8398 0.5059
vn 0.5209 0.8342 0.1808
vn 0.5149 0.7123 0.4769
vn -0.1634 0.9705 0.1774
vn -0.5059 0.8398 0.1972
vn -0.1808 0.8342 0.5209
vn -0.4769 0.7123 0.5149
vn -0.1774 0.9705 -0.1633
vn -0.1972 0.8398 -0.5059
vn -0.5209 0.8342 -0.1808
vn -0.5149 0.7123 -0.4769
vn 0.1634 0.9705 -0.1774
vn 0.5059 0.8398 -0.1972
vn 0.1808 0.8342 -0.5209
vn 0.4769 0.7123 -0.5149
vn -0.1774 -0.9705 0.1633
vn -0.1972 -0.8398 0.5059
vn -0.5209 -0.8342 0.1808
vn -0.5149 -0.7123 0.4769
vn 0.1634 -0.9705 0.1774
vn 0.5059 -0.8398 0.1972
vn 0.1808 -0.8342 0.5209
vn 0.4769 -0.7123 0.5149
vn 0.1774 -0.9705 -0.1634
vn 0.1972 -0.8398 -0.5059
vn 0.5209 -0.8342 -0.1808
vn 0.5149 -0.7123 -0.4769
vn -0.1634 -0.9705 -0.1774
vn -0.5059 -0.8398 -0.1972
vn -0.1808 -0.8342 -0.5209
vn -0.4769 -0.7123 -0.5149
vn 0.9705 0.1633 -0.1774
vn 0.8342 0.1808 -0.5209
vn 0.8398 0.5059 -0.1972
vn 0.7123 0.4769 -0.5149
vn 0.9705 -0.1774 -0.1634
vn 0.8342 -0.5209 -0.1808
vn 0.8398 -0.1972 -0.5059
vn 0.7123 -0.5149 -0.4769
vn 0.9705 -0.1633 0.1774
vn 0.8342 -0.1808 0.5209
vn 0.8398 -0.5059 0.1972
vn 0.7123 -0.4769 0.5149
vn 0.9705 0.1774 0.1634
vn 0.8342 0.5209 0.1808
vn 0.8398 0.1972 0.5059
vn 0.7123 0.5149 0.4769
vn 0.1774 0.1633 0.9705
vn 0.5209 0.1808 0.8342
vn 0.1972 0.5059 0.8398
vn 0.5149 0.4769 0.7123
vn 0.1634 -0.1774 0.9705
vn 0.1808 -0.5209 0.8342
vn 0.5059 -0.1972 0.8398
vn 0.4769 -0.5149 0.7123
vn -0.1774 -0.1634 0.9705
vn -0.5209 -0.1808 0.8342
vn -0.1972 -0.5059 0.8398
vn -0.5149 -0.4769 0.7123
vn -0.1633 0.1774 0.9705
vn -0.1808 0.5209 0.8342
vn -0.5059 0.1972 0.8398
vn -0.4769 0.5149 0.7123
vn -0.9705 0.1633 0.1774
vn -0.8342 0.1808 0.5209
vn -0.8398 0.5059 0.1972
vn -0.7123 0.4769 0.5149
vn -0.9705 -0.1774 0.1634
vn -0.8342 -0.5209 0.1808
vn -0.8398 -0.1972 0.5059
vn -0.7123 -0.5149 0.4769
vn -0.9705 -0.1633 -0.1774
vn -0.8342 -0.1808 -0.5209
vn -0.8398 -0.5059 -0.1972
vn -0.7123 -0.4769 -0.5149
vn -0.9705 0.1774 -0.1634
vn -0.8342 0.5209 -0.1808
vn -0.8398 0.1972 -0.5059
vn -0.7123 0.5149 -0.4769
vn -0.1774 0.1634 -0.9705
vn -0.5209 0.1808 -0.8342
vn -0.1972 0.5059 -0.8398
vn -0.5149 0.4769 -0.7123
vn -0.1633 -0.1774 -0.9705
vn -0.1808 -0.5209 -0.8342
vn -0.5059 -0.1972 -0.8398
vn -0.4769 -0.5149 -0.7123
vn 0.1774 -0.1633 -0.9705
vn 0.5209 -0.1808 -0.8342
vn 0.1972 -0.5059 -0.8398
vn 0.5149 -0.4769 -0.7123
vn 0.1634 0.1774 -0.9705
vn 0.1808 0.5209 -0.8342
vn 0.5059 0.1972 -0.8398
vn 0.4769 0.5149 -0.7123
vn 0.1634 0.9705 0.1774
vn 0.1808 0.8342 0.5209
vn 0.5059 0.8398 0.1972
vn 0.4769 0.7123 0.5149
vn -0.1774 0.9705 0.1634
vn -0.5209 0.8342 0.1808
vn -0.1972 0.8398 0.5059
vn -0.5149 0.7123 0.4769
vn -0.1634 0.9705 -0.1774
vn -0.1808 0.8342 -0.5209
vn -0.5059 0.8398 -0.1972
vn -0.4769 0.7123 -0.5149
vn 0.1774 0.9705 -0.1633
vn 0.5209 0.8342 -0.1808
vn 0.1972 0.8398 -0.5059
vn 0.5149 0.7123 -0.4769
vn -0.1634 -0.9705 0.1774
vn -0.1808 -0.8342 0.5209
vn -0.5059 -0.8398 0.1972
vn -0.4769 -0.7123 0.5149
vn 0.1774 -0.9705 0.1633
vn 0.5209 -0.8342 0.1808
vn 0.1972 -0.8398 0.5059
vn 0.5149 -0.7123 0.4769
vn 0.1634 -0.9705 -0.1774
vn 0.1808 -0.8342 -0.5209
vn 0.5059 -0.8398 -0.1972
vn 0.4769 -0.7123 -0.5149
vn -0.1774 -0.9705 -0.1634
vn -0.5209 -0.8342 -0.1808
vn -0.1972 -0.8398 -0.5059
vn -0.5149 -0.7123 -0.4769
usemtl None
s 1
f 1//1 3//1 2//1
f 3//2 5//2 4//2
f 6//3 2//3 7//3
f 2//4 4//4 8//4
f 1//5 10//5 9//5
f 10//6 12//6 11//6
f 3//7 9//7 13//7
f 9//8 11//8 14//8
f 1//9 16//9 15//9
f 16//10 18//10 17//10
f 10//11 15//11 19//11
f 15//12 17//12 20//12
f 1//13 6//13 21//13
f 6//14 23//14 22//14
f 16//15 21//15 24//15
f 21//16 22//16 25//16
f 26//17 28//17 27//17
f 28//18 18//18 24//18
f 29//19 27//19 30//19
f 27//20 24//20 25//20
f 26//21 32//21 31//21
f 32//22 34//22 33//22
f 28//23 31//23 17//23
f 31//24 33//24 20//24
f 26//25 36//25 35//25
f 36//26 38//26 37//26
f 32//27 35//27 39//27
f 35//28 37//28 40//28
f 26//29 29//29 41//29
f 29//30 43//30 42//30
f 36//31 41//31 44//31
f 41//32 42//32 45//32
f 46//33 48//33 47//33
f 48//34 38//34 44//34
f 49//35 47//35 50//35
f 47//36 44//36 45//36
f 46//37 52//37 51//37
f 52//38 54//38 53//38
f 48//39 51//39 37//39
f 51//40 53//40 40//40
f 46//41 56//41 55//41
f 56//42 58//42 57//42
f 52//43 55//43 59//43
f 55//44 57//44 60//44
f 46//45 49//45 61//45
f 49//46 63//46 62//46
f 56//47 61//47 64//47
f 61//48 62//48 65//48
f 66//49 68//49 67//49
f 68//50 58//50 64//50
f 69//51 67//51 70//51
f 67//52 64//52 65//52
f 66//53 72//53 71//53
f 72//54 74//54 73//54
f 68//55 71//55 57//55
f 71//56 73//56 60//56
f 66//57 76//57 75//57
f 76//58 5//58 13//58
f 72//59 75//59 77//59
f 75//60 13//60 14//60
f 66//61 69//61 78//61
f 69//62 80//62 79//62
f 76//63 78//63 4//63
f 78//64 79//64 8//64
f 81//65 83//65 82//65
f 83//66 43//66 30//66
f 84//67 82//67 22//67
f 82//68 30//68 25//68
f 81//69 86//69 85//69
f 86//70 63//70 50//70
f 83//71 85//71 42//71
f 85//72 50//72 45//72
f 81//73 88//73 87//73
f 88//74 80//74 70//74
f 86//75 87//75 62//75
f 87//76 70//76 65//76
f 81//77 84//77 89//77
f 84//78 23//78 7//78
f 88//79 89//79 79//79
f 89//80 7//80 8//80
f 90//81 92//81 91//81
f 92//82 34//82 39//82
f 93//83 91//83 53//83
f 91//84 39//84 40//84
f 90//85 95//85 94//85
f 95//86 12//86 19//86
f 92//87 94//87 33//87
f 94//88 19//88 20//88
f 90//89 97//89 96//89
f 97//90 74//90 77//90
f 95//91 96//91 11//91
f 96//92 77//92 14//92
f 90//93 93//93 98//93
f 93//94 54//94 59//94
f 97//95 98//95 73//95
f 98//96 59//96 60//96
f 1//97 2//97 6//97
f 3//98 4//98 2//98
f 6//99 7//99 23//99
f 2//100 8//100 7//100
f 1//101 9//101 3//101
f 10//102 11//102 9//102
f 3//103 13//103 5//103
f 9//104 14//104 13//104
f 1//105 15//105 10//105
f 16//106 17//106 15//106
f 10//107 19//107 12//107
f 15//108 20//108 19//108
f 1//109 21//109 16//109
f 6//110 22//110 21//110
f 16//111 24//111 18//111
f 21//112 25//112 24//112
f 26//113 27//113 29//113
f 28//114 24//114 27//114
f 29//115 30//115 43//115
f 27//116 25//116 30//116
f 26//117 31//117 28//117
f 32//118 33//118 31//118
f 28//119 17//119 18//119
f 31//120 20//120 17//120
f 26//121 35//121 32//121
f 36//122 37//122 35//122
f 32//123 39//123 34//123
f 35//124 40//124 39//124
f 26//125 41//125 36//125
f 29//126 42//126 41//126
f 36//127 44//127 38//127
f 41//128 45//128 44//128
f 46//129 47//129 49//129
f 48//130 44//130 47//130
f 49//131 50//131 63//131
f 47//132 45//132 50//132
f 46//133 51//133 48//133
f 52//134 53//134 51//134
f 48//135 37//135 38//135
f 51//136 40//136 37//136
f 46//137 55//137 52//137
f 56//138 57//138 55//138
f 52//139 59//139 54//139
f 55//140 60//140 59//140
f 46//141 61//141 56//141
f 49//142 62//142 61//142
f 56//143 64//143 58//143
f 61//144 65//144 64//144
f 66//145 67//145 69//145
f 68//146 64//146 67//146
f 69//147 70//147 80//147
f 67//148 65//148 70//148
f 66//149 71//149 68//149
f 72//150 73//150 71//150
f 68//151 57//151 58//151
f 71//152 60//152 57//152
f 66//153 75//153 72//153
f 76//154 13//154 75//154
f 72//155 77//155 74//155
f 75//156 14//156 77//156
f 66//157 78//157 76//157
f 69//158 79//158 78//158
f 76//159 4//159 5//159
f 78//160 8//160 4//160
f 81//161 82//161 84//161
f 83//162 30//162 82//162
f 84//163 22//163 23//163
f 82//164 25//164 22//164
f 81//165 85//165 83//165
f 86//166 50//166 85//166
f 83//167 42//167 43//167
f 85//168 45//168 42//168
f 81//169 87//169 86//169
f 88//170 70//170 87//170
f 86//171 62//171 63//171
f 87//172 65//172 62//172
f 81//173 89//173 88//173
f 84//174 7//174 89//174
f 88//175 79//175 80//175
f 89//176 8//176 79//176
f 90//177 91//177 93//177
f 92//178 39//178 91//178
f 93//179 53//179 54//179
f 91//180 40//180 53//180
f 90//181 94//181 92//181
f 95//182 19//182 94//182
f 92//183 33//183 34//183
f 94//184 20//184 33//184
f 90//185 96//185 95//185
f 97//186 77//186 96//186
f 95//187 11//187 12//187
f 96//188 14//188 11//188
f 90//189 98//189 97//189
f 93//190 59//190 98//190
f 97//191 73//191 74//191
f 98//192 60//192 73//192
o Cylinder
v 0.000000 -1.000000 -1.000000
v 0.000000 1.000000 -1.000000
v 0.195090 -1.000000 -0.980785
v 0.195090 1.000000 -0.980785
v 0.382683 -1.000000 -0.923880
v 0.382683 1.000000 -0.923880
v 0.555570 -1.000000 -0.831470
v 0.555570 1.000000 -0.831470
v 0.707107 -1.000000 -0.707107
v 0.707107 1.000000 -0.707107
v 0.831470 -1.000000 -0.555570
v 0.831470 1.000000 -0.555570
v 0.923880 -1.000000 -0.382683
v 0.923880 1.000000 -0.382683
v 0.980785 -1.000000 -0.195090
v 0.980785 1.000000 -0.195090
v 1.000000 -1.000000 -0.000000
v 1.000000 1.000000 -0.000000
v 0.980785 -1.000000 0.195090
v 0.980785 1.000000 0.195090
v 0.923880 -1.000000 0.382683
v 0.923880 1.000000 0.382683
v 0.831470 -1.000000 0.555570
v 0.831470 1.000000 0.555570
v 0.707107 -1.000000 0.707107
v 0.707107 1.000000 0.707107
v 0.555570 -1.000000 0.831470
v 0.555570 1.000000 0.831470
v 0.382683 -1.000000 0.923880
v 0.382683 1.000000 0.923880
v 0.195090 -1.000000 0.980785
v 0.195090 1.000000 0.980785
v -0.000000 -1.000000 1.000000
v -0.000000 1.000000 1.000000
v -0.195091 -1.000000 0.980785
v -0.195091 1.000000 0.980785
v -0.382684 -1.000000 0.923879
v -0.382684 1.000000 0.923879
v -0.555571 -1.000000 0.831469
v -0.555571 1.000000 0.831469
v -0.707107 -1.000000 0.707106
v -0.707107 1.000000 0.707106
v -0.831470 -1.000000 0.555570
v -0.831470 1.000000 0.555570
v -0.923880 -1.000000 0.382683
v -0.923880 1.000000 0.382683
v -0.980785 -1.000000 0.195089
v -0.980785 1.000000 0.195089
v -1.000000 -1.000000 -0.000001
v -1.000000 1.000000 -0.000001
v -0.980785 -1.000000 -0.195091
v -0.980785 1.000000 -0.195091
v -0.923879 -1.000000 -0.382684
v -0.923879 1.000000 -0.382684
v -0.831469 -1.000000 -0.555571
v -0.831469 1.000000 -0.555571
v -0.707106 -1.000000 -0.707108
v -0.707106 1.000000 -0.707108
v -0.555569 -1.000000 -0.831470
v -0.555569 1.000000 -0.831470
v -0.382682 -1.000000 -0.923880
v -0.382682 1.000000 -0.923880
v -0.195089 -1.000000 -0.980786
v -0.195089 1.000000 -0.980786
vn 0.0980 0.0000 -0.9952
vn 0.2903 0.0000 -0.9569
vn 0.4714 0.0000 -0.8819
vn 0.6344 0.0000 -0.7730
vn 0.7730 0.0000 -0.6344
vn 0.8819 0.0000 -0.4714
vn 0.9569 0.0000 -0.2903
vn 0.9952 0.0000 -0.0980
vn 0.9952 0.0000 0.0980
vn 0.9569 0.0000 0.2903
vn 0.8819 0.0000 0.4714
vn 0.7730 0.0000 0.6344
vn 0.6344 0.0000 0.7730
vn 0.4714 0.0000 0.8819
vn 0.2903 0.0000 0.9569
vn 0.0980 0.0000 0.9952
vn -0.0980 0.0000 0.9952
vn -0.2903 0.0000 0.9569
vn -0.4714 0.0000 0.8819
vn -0.6344 0.0000 0.7730
vn -0.7730 0.0000 0.6344
vn -0.8819 0.0000 0.4714
vn -0.9569 0.0000 0.2903
vn -0.9952 0.0000 0.0980
vn -0.9952 0.0000 -0.0980
vn -0.9569 0.0000 -0.2903
vn -0.8819 0.0000 -0.4714
vn -0.7730 0.0000 -0.6344
vn -0.6344 0.0000 -0.7730
vn -0.4714 0.0000 -0.8819
vn 0.0000 1.0000 0.0000
vn -0.2903 0.0000 -0.9569
vn -0.0980 0.0000 -0.9952
vn 0.0000 -1.0000 -0.0000
usemtl None
s off
f 99//193 100//193 102//193 101//193
f 101//194 102//194 104//194 103//194
f 103//195 104//195 106//195 105//195
f 105//196 106//196 108//196 107//196
f 107//197 108//197 110//197 109//197
f 109//198 110//198 112//198 111//198
f 111//199 112//199 114//199 113//199
f 113//200 114//200 116//200 115//200
f 115//201 116//201 118//201 117//201
f 117//202 118//202 120//202 119//202
f 119//203 120//203 122//203 121//203
f 121//204 122//204 124//204 123//204
f 123//205 124//205 126//205 125//205
f 125//206 126//206 128//206 127//206
f 127//207 128//207 130//207 129//207
f 129//208 130//208 132//208 131//208
f 131//209 132//209 134//209 133//209
f 133//210 134//210 136//210 135//210
f 135//211 136//211 138//211 137//211
f 137//212 138//212 140//212 139//212
f 139//213 140//213 142//213 141//213
f 141//214 142//214 144//214 143//214
f 143//215 144//215 146//215 145//215
f 145//216 146//216 148//216 147//216
f 147//217 148//217 150//217 149//217
f 149//218 150//218 152//218 151//218
f 151//219 152//219 154//219 153//219
f 153//220 154//220 156//220 155//220
f 155//221 156//221 158//221 157//221
f 157//222 158//222 160//222 159//222
f 102//223 100//223 162//223 160//223 158//223 156//223 154//223 152//223 150//223 148//223 146//223 144//223 142//223 140//223 138//223 136//223 134//223 132//223 130//223 128//223 126//223 124//223 122//223 120//223 118//223 116//223 114//223 112//223 110//223 108//223 106//223 104//223
f 159//224 160//224 162//224 161//224
f 161//225 162//225 100//225 99//225
f 99//226 101//226 103//226 105//226 107//226 109//226 111//226 113//226 115//226 117//226 119//226 121//226 123//226 125//226 127//226 129//226 131//226 133//226 135//226 137//226 139//226 141//226 143//226 145//226 147//226 149//226 151//226 153//226 155//226 157//226 159//226 161//226
