# Blender v2.79 (sub 0) OBJ File: ''
# www.blender.org
mtllib ground.mtl
o Ground_Plane
v 0.000000 -3.350039 0.000000
v -8.643005 0.000000 0.000000
v 0.000000 0.000000 8.643005
v 8.643005 0.000000 0.000000
v 0.000000 0.000000 -8.643005
v -6.482254 0.000000 6.482254
v 6.482254 0.000000 6.482254
v -6.482254 0.000000 -6.482254
v 6.482254 0.000000 -6.482254
v -1.956057 -3.350039 -1.956057
v -6.906852 -0.634679 0.000000
v -1.956057 -3.350039 1.956057
v 0.000000 -0.634679 6.906852
v 1.956057 -3.350039 1.956057
v 6.906852 -0.634679 0.000000
v 1.956057 -3.350039 -1.956057
v 0.000000 -0.634679 -6.906852
v -5.180139 -0.634679 -5.180139
v -5.993363 -1.768510 0.000000
v -5.180139 -0.634679 5.180139
v 0.000000 -1.768510 5.993363
v 5.180139 -0.634679 5.180139
v 5.993363 -1.768510 0.000000
v 5.180139 -0.634679 -5.180139
v 0.000000 -1.768510 -5.993363
v -4.495022 -1.768510 -4.495022
v -2.608076 -3.350039 0.000000
v -4.495022 -1.768510 4.495022
v 0.000000 -3.350039 2.608076
v 4.495022 -1.768510 4.495022
v 2.608076 -3.350039 0.000000
v 4.495022 -1.768510 -4.495022
v 0.000000 -3.350039 -2.608076
vn 0.0000 1.0000 0.0000
vn 0.3411 0.9331 0.1137
vn 0.3411 0.9331 -0.1137
vn 0.1137 0.9331 -0.3411
vn -0.1137 0.9331 -0.3411
vn -0.3411 0.9331 -0.1137
vn -0.3411 0.9331 0.1137
vn -0.1137 0.9331 0.3411
vn 0.1137 0.9331 0.3411
vn 0.7537 0.6073 0.2512
vn 0.7537 0.6073 -0.2512
vn 0.2512 0.6073 -0.7537
vn -0.2512 0.6073 -0.7537
vn -0.7537 0.6073 -0.2512
vn -0.7537 0.6073 0.2512
vn -0.2512 0.6073 0.7537
vn 0.2512 0.6073 0.7537
vn 0.4191 0.8971 0.1397
vn 0.4191 0.8971 -0.1397
vn 0.1397 0.8971 -0.4191
vn -0.1397 0.8971 -0.4191
vn -0.4191 0.8971 -0.1397
vn -0.4191 0.8971 0.1397
vn -0.1397 0.8971 0.4191
vn 0.1397 0.8971 0.4191
usemtl None
s off
f 1//1 12//1 29//1
f 1//1 14//1 31//1
f 1//1 16//1 33//1
f 1//1 10//1 27//1
f 18//2 2//2 11//2
f 20//3 2//3 6//3
f 20//4 3//4 13//4
f 22//5 3//5 7//5
f 22//6 4//6 15//6
f 24//7 4//7 9//7
f 24//8 5//8 17//8
f 18//9 5//9 8//9
f 26//10 11//10 19//10
f 28//11 11//11 20//11
f 28//12 13//12 21//12
f 30//13 13//13 22//13
f 30//14 15//14 23//14
f 32//15 15//15 24//15
f 32//16 17//16 25//16
f 26//17 17//17 18//17
f 10//18 19//18 27//18
f 12//19 19//19 28//19
f 12//20 21//20 29//20
f 14//21 21//21 30//21
f 14//22 23//22 31//22
f 16//23 23//23 32//23
f 16//24 25//24 33//24
f 10//25 25//25 26//25
f 1//1 27//1 12//1
f 1//1 29//1 14//1
f 1//1 31//1 16//1
f 1//1 33//1 10//1
f 18//2 8//2 2//2
f 20//3 11//3 2//3
f 20//4 6//4 3//4
f 22//5 13//5 3//5
f 22//6 7//6 4//6
f 24//7 15//7 4//7
f 24//8 9//8 5//8
f 18//9 17//9 5//9
f 26//10 18//10 11//10
f 28//11 19//11 11//11
f 28//12 20//12 13//12
f 30//13 21//13 13//13
f 30//14 22//14 15//14
f 32//15 23//15 15//15
f 32//16 24//16 17//16
f 26//17 25//17 17//17
f 10//18 26//18 19//18
f 12//19 27//19 19//19
f 12//20 28//20 21//20
f 14//21 29//21 21//21
f 14//22 30//22 23//22
f 16//23 31//23 23//23
f 16//24 32//24 25//24
f 10//25 33//25 25//25
