# Blender v2.79 (sub 0) OBJ File: 'ground.blend'
# www.blender.org
mtllib obstacle.mtl
o Obstacle_Plane.003
v -1.324542 2.056385 0.514504
v -0.295534 2.056385 0.514504
v -1.324542 2.056385 -0.514504
v -0.295534 2.056385 -0.514504
v -1.324542 2.127823 0.514504
v -0.295534 2.127823 0.514504
v -1.324542 2.127823 -0.514504
v -0.295534 2.127823 -0.514504
v -0.914314 2.056385 1.264205
v -0.705762 2.056385 1.264205
v -0.914314 2.127823 1.264205
v -0.705762 2.127823 1.264205
v -1.990804 2.056385 -1.018039
v -1.762203 2.056385 -1.018039
v -1.990804 2.127823 -1.018039
v -1.762203 2.127823 -1.018039
vn 0.0000 -1.0000 0.0000
vn 0.0000 1.0000 0.0000
usemtl None
s off
f 1//1 3//1 4//1 2//1
f 5//2 6//2 8//2 7//2
f 6//2 5//2 11//2 12//2
f 1//1 2//1 10//1 9//1
f 7//2 8//2 16//2 15//2
f 4//1 3//1 13//1 14//1
